<svg width="50" height="50" viewBox="0 0 50 50" fill="none" xmlns="http://www.w3.org/2000/svg">
<circle cx="25" cy="25" r="23.5" fill="#EFF7FE" stroke="#A8A8A8" stroke-width="3"/>
<path d="M16.4905 35.6568C16.6477 35.0626 16.6313 33.9143 16.4346 33.1919C16.398 33.1775 16.3613 33.1631 16.3247 33.1488C16.0268 33.4382 15.8514 33.7809 15.7116 34.1442C15.2441 35.4444 15.7097 35.8067 15.7174 36.8329C14.952 35.7564 14.2984 34.6142 13.7566 33.4258C13.8395 32.0671 14.4401 32.6203 14.8131 30.7762C14.8816 30.4016 14.9356 30.0198 14.9009 29.5734C14.8681 29.5509 14.8353 29.5283 14.8035 29.5067C14.4632 29.6986 14.2299 29.9675 14.0246 30.2641C13.3083 31.3601 13.719 31.7388 13.4693 32.765C12.9767 31.5776 12.594 30.3472 12.3221 29.0932C12.5506 28.0947 12.7771 28.2815 13.3449 27.676C13.6785 27.3117 14.0757 26.423 14.1489 25.6933C14.121 25.6646 14.094 25.6349 14.067 25.6051C13.7113 25.6954 13.4404 25.8863 13.1936 26.1079C12.1862 27.0572 12.7945 27.2357 12.1717 28.3307C11.949 27.089 11.8334 25.8278 11.8257 24.5635C12.405 23.1217 12.7636 24.1037 13.7431 22.6691C13.9234 22.39 14.0911 22.0975 14.2039 21.6993C14.1836 21.6634 14.1624 21.6285 14.1422 21.5926C13.7922 21.5844 13.5069 21.6963 13.237 21.8399C12.0898 22.5008 12.6682 22.8754 11.8363 23.7158C11.8767 22.4813 12.0194 21.2478 12.2672 20.0307C12.9381 18.9429 12.8186 19.4068 13.7826 19.0722C14.2704 18.8978 14.843 18.2472 15.0879 17.7443C15.0773 17.7053 15.0647 17.6653 15.0522 17.6253C14.5114 17.458 13.7932 17.6612 13.4163 18.0563C12.9854 18.5191 13.048 18.7931 12.4773 19.1082C12.7781 17.8993 13.1849 16.712 13.6968 15.5605C13.7064 15.5739 13.7171 15.5872 13.7267 15.6016C14.9655 14.2511 14.8334 15.501 16.1213 14.6606C16.3613 14.4943 16.5975 14.3065 16.8308 13.9915C16.8279 13.9484 16.8241 13.9053 16.8212 13.8622C16.3681 13.5656 15.674 13.583 15.2498 13.8755C14.7919 14.2018 14.7119 14.5538 14.1441 14.679C14.148 14.6524 14.1489 14.6267 14.1538 14.6C14.9838 12.9612 16.0384 11.4106 17.3196 9.99951C16.1059 11.2484 15.0725 12.6256 14.2212 14.0941C14.2791 13.111 14.2714 12.1925 13.6072 11.4198C13.5638 11.4372 13.5204 11.4537 13.477 11.4711C12.8061 12.7262 12.6952 14.1587 13.5474 15.3533C13.0596 16.3405 12.6499 17.3636 12.3183 18.4093C12.1592 17.4324 11.816 16.4605 11.0843 15.8612C11.0458 15.8869 11.0072 15.9136 10.9686 15.9402C10.6091 17.3759 10.8568 18.9132 11.9057 19.887C11.655 20.9245 11.4776 21.9805 11.3764 23.0447C10.9754 22.115 10.4307 21.2109 9.56504 20.7285C9.53322 20.7624 9.50141 20.7973 9.46863 20.8312C9.4455 22.3787 10.0509 23.8616 11.28 24.6476C11.254 25.6985 11.3012 26.7514 11.4217 27.8002C10.8115 26.9689 10.0461 26.1654 9.07339 25.8329C9.04929 25.874 9.02422 25.915 9.00012 25.9561C9.33271 27.5108 10.2456 28.8633 11.6714 29.4452C11.8661 30.4683 12.1322 31.4812 12.4696 32.4735C11.2598 31.4463 10.3555 31.082 9.63541 30.9794C9.61998 31.0255 9.60456 31.0717 9.5901 31.1179C10.2823 32.6018 11.4767 33.7614 13.0904 34.0847C13.5021 35.0401 13.9831 35.9708 14.5355 36.8698C13.0326 36.1053 12.0165 35.9318 11.2771 35.9667C11.2723 36.016 11.2675 36.0663 11.2627 36.1155C12.3173 37.4609 13.7816 38.3537 15.5448 38.3691C15.9738 38.9499 16.4346 39.5133 16.9292 40.0572C17.1894 39.7801 17.4497 39.5031 17.71 39.226C17.1432 38.6431 16.6158 38.0304 16.13 37.3942C16.0172 36.5004 16.2756 36.4398 16.4905 35.6568Z" fill="#FCB645"/>
<path d="M36.5308 32.475C36.8692 31.4827 37.1343 30.4698 37.329 29.4467C38.6015 28.9274 39.6301 27.6867 40.0003 25.9576C39.9762 25.9165 39.9521 25.8755 39.927 25.8344C38.9534 26.1669 38.1889 26.9725 37.5787 27.8017C37.6992 26.7539 37.7464 25.7 37.7204 24.6492C38.9514 23.861 39.5549 22.3771 39.5318 20.8327C39.5 20.7988 39.4681 20.7639 39.4354 20.7301C38.5755 21.2093 38.0298 22.1072 37.624 23.0462C37.5228 21.982 37.3454 20.9261 37.0947 19.8886C37.9672 19.0953 38.453 17.6217 38.0318 15.9407C37.9932 15.9141 37.9546 15.8884 37.9161 15.8617C37.1805 16.4641 36.8393 17.4411 36.6821 18.4098C36.3505 17.3631 35.9408 16.341 35.453 15.3527C36.3042 14.1531 36.1982 12.7338 35.5224 11.4706C35.479 11.4531 35.4357 11.4367 35.3923 11.4192C34.729 12.192 34.7204 13.1104 34.7782 14.0946C33.927 12.6261 32.8935 11.2489 31.6798 10C32.961 11.411 34.0157 12.9616 34.8457 14.6005C34.8505 14.6272 34.8515 14.6518 34.8553 14.6795C34.2875 14.5533 34.2075 14.2013 33.7486 13.876C33.3245 13.5835 32.6304 13.5661 32.1773 13.8627C32.1744 13.9058 32.1705 13.9489 32.1676 13.992C32.4809 14.4168 33.1288 14.9309 33.6194 14.9751C34.4938 15.0418 34.3637 14.6118 35.2718 15.6021C35.2814 15.5887 35.2911 15.5744 35.3017 15.561C35.8136 16.7114 36.2204 17.8998 36.5211 19.1086C35.56 18.5771 36.0497 17.9808 34.8235 17.6299C34.5497 17.5611 34.2673 17.5262 33.9462 17.6247C33.9337 17.6648 33.9212 17.7048 33.9087 17.7448C34.0841 18.106 34.2914 18.3472 34.5063 18.5699C35.7152 19.7552 35.8116 18.5596 36.7303 20.0322C36.9781 21.2493 37.1217 22.4828 37.1612 23.7174C36.2223 22.7681 36.9434 22.5218 35.7605 21.8414C35.4906 21.6978 35.2062 21.5849 34.8563 21.5941C34.836 21.63 34.8148 21.6649 34.7946 21.7009C34.9893 22.3925 35.5147 23.1201 35.8878 23.3674C36.6031 23.8323 36.7602 23.5388 37.1728 24.565C37.1651 25.8293 37.0494 27.0915 36.8267 28.3322C36.2425 27.306 36.7988 27.0454 35.8049 26.1095C35.5581 25.8868 35.2872 25.6969 34.9315 25.6066C34.9045 25.6364 34.8765 25.6661 34.8495 25.6949C34.8919 26.1228 35.0105 26.4625 35.1416 26.7939C35.8492 28.4636 36.3505 27.6693 36.6763 29.0947C36.4045 30.3487 36.0218 31.5792 35.5292 32.7665C35.3171 31.8932 35.5205 32.083 35.4019 31.2898C35.2968 30.6248 34.7849 29.8408 34.195 29.5083C34.1622 29.5308 34.1294 29.5534 34.0966 29.575C33.9115 31.9886 35.1522 31.9671 35.2409 33.4274C34.6991 34.6157 34.0455 35.7579 33.2801 36.8344C33.2878 35.8082 33.7534 35.4469 33.2859 34.1457C33.1461 33.7824 32.9707 33.4397 32.6728 33.1503C32.6361 33.1647 32.5995 33.179 32.5629 33.1934C32.3662 33.9148 32.3498 35.0631 32.507 35.6583C32.7229 36.4444 32.9803 36.5019 32.8685 37.3937C32.3816 38.0309 31.8553 38.6426 31.2885 39.2255C31.5487 39.5025 31.809 39.7796 32.0693 40.0567C32.5629 39.5128 33.0246 38.9494 33.4527 38.3686C34.2114 38.3624 34.8418 38.2187 35.4193 37.9694C36.2146 37.5845 37.0118 37.0386 37.7348 36.1181C37.73 36.0688 37.7252 36.0185 37.7204 35.9693C36.981 35.9354 35.9649 36.1078 34.462 36.8724C35.0144 35.9734 35.4954 35.0426 35.9071 34.0872C37.5295 33.7629 38.7201 32.5951 39.4074 31.1204C39.392 31.0743 39.3775 31.0281 39.3621 30.9819C38.6449 31.0835 37.7406 31.4468 36.5308 32.475Z" fill="#FCB645"/>
<path d="M24.5004 15.9824L26.8343 23.6277H34.3844L28.2755 28.3524L30.6094 35.9966L24.5004 31.2719L18.3914 35.9966L20.7253 28.3524L14.6154 23.6277H22.1665L24.5004 15.9824Z" fill="#FFCC5B"/>
<path d="M24.5006 15.9824V26.8941L26.8345 23.6277L24.5006 15.9824Z" fill="#FCB645"/>
<path d="M24.5006 26.8934L34.3847 23.627L28.2757 28.3516L24.5006 26.8934Z" fill="#FCB645"/>
<path d="M24.5006 26.8936L30.6096 35.996L24.5006 31.2714V26.8936Z" fill="#FCB645"/>
<path d="M24.5008 26.8936L20.7257 28.3518L18.3918 35.996L24.5008 26.8936Z" fill="#FCB645"/>
<path d="M14.6154 23.627H22.1665L24.5004 26.8934L14.6154 23.627Z" fill="#FCB645"/>
</svg>
